<mxfile host="app.diagrams.net" modified="2023-09-11T06:02:44.753Z" agent="Mozilla/5.0 (X11; Linux x86_64) AppleWebKit/537.36 (KHTML, like Gecko) Chrome/109.0.0.0 Safari/537.36" etag="A9U4EDtv-eXskFcCJq94" version="21.7.4" type="github">
  <diagram name="Page-1" id="Ah0ReP_8uDorGeU4m-97">
    <mxGraphModel dx="1054" dy="627" grid="1" gridSize="10" guides="1" tooltips="1" connect="1" arrows="1" fold="1" page="1" pageScale="1" pageWidth="850" pageHeight="1100" math="0" shadow="0">
      <root>
        <mxCell id="0" />
        <mxCell id="1" parent="0" />
      </root>
    </mxGraphModel>
  </diagram>
</mxfile>
